<?xml version="1.0" standalone="no"?>
<!DOCTYPE svg PUBLIC "-//W3C//DTD SVG 20010904//EN"
 "http://www.w3.org/TR/2001/REC-SVG-20010904/DTD/svg10.dtd">
<svg version="1.0" xmlns="http://www.w3.org/2000/svg" 
 viewBox="0 0 122.000000 109.000000" 
 preserveAspectRatio="xMidYMid meet">

<g transform="translate(0.000000,109.000000) scale(0.050000,-0.050000)"
stroke="none">
<path d="M1170 2158 c-507 -74 -750 -446 -750 -1150 0 -516 -70 -706 -320
-874 -92 -62 -98 -71 -67 -96 108 -90 297 7 421 217 122 207 132 261 145 745
15 599 90 763 418 925 l132 65 467 6 467 6 -6 -456 -7 -457 -65 -133 c-161
-326 -354 -420 -888 -432 l-373 -8 -10 -53 c-6 -29 -17 -69 -25 -88 -36 -93
810 -36 1031 70 408 195 520 466 520 1270 l0 465 -485 -2 c-267 -2 -539 -11
-605 -20z"/>
<path d="M1550 1636 c-132 -86 -310 -199 -395 -249 -170 -102 -173 -108 -55
-147 117 -38 117 -36 -62 -270 -89 -117 -159 -216 -155 -220 4 -4 111 60 237
142 127 82 286 182 355 223 149 88 150 90 33 127 l-92 28 194 256 c107 141
191 259 187 262 -4 3 -115 -65 -247 -152z"/>
</g>
</svg>
